<svg height="512pt" viewBox="-67 0 512 512" width="512pt" xmlns="http://www.w3.org/2000/svg"><path d="m377.085938 418.976562v72.265626c0 11.464843-9.210938 20.757812-20.554688 20.757812h-319.5c-5.675781 0-10.277344-4.644531-10.277344-10.375v-82.648438zm0 0" fill="#eb5777"/><path d="m377.085938 418.976562v38.074219c-5.65625 4.5625-12.847657 7.28125-20.65625 7.28125h-319.355469c-3.71875 0-7.222657-.894531-10.320313-2.503906v-42.855469h350.332032zm0 0" fill="#ce3f63"/><path d="m353.605469 418.972656v72.265625c0 11.46875-9.199219 20.757813-20.554688 20.757813h23.472657c11.359374 0 20.554687-9.289063 20.554687-20.757813v-72.265625zm0 0" fill="#ce3f63"/><path d="m339.835938 425.566406v49.492188c0 5.707031-4.625 10.332031-10.324219 10.332031h-292.4375c-5.695313 0-10.320313-4.625-10.320313-10.332031v-49.492188zm0 0" fill="#ebeef2"/><path d="m339.835938 425.566406v38.769532h-302.761719c-3.71875 0-7.222657-.898438-10.320313-2.503907v-36.261719h313.082032zm0 0" fill="#d3d8df"/><path d="m356.425781 451.96875h-319.347656c-5.703125 0-10.328125-4.625-10.328125-10.328125v-431.3125c0-5.703125 4.625-10.328125 10.328125-10.328125h319.347656c11.410157 0 20.65625 9.25 20.65625 20.65625v410.65625c0 11.40625-9.246093 20.65625-20.65625 20.65625zm0 0" fill="#ed7a98"/><path d="m377.078125 20.757812v410.449219c0 11.46875-9.195313 20.757813-20.554687 20.757813h-23.472657c11.355469 0 20.554688-9.289063 20.554688-20.757813v-410.449219c0-11.457031-9.195313-20.757812-20.554688-20.757812h23.472657c11.359374 0 20.554687 9.300781 20.554687 20.757812zm0 0" fill="#eb5777"/><path d="m86.648438 143.347656 36.65625-36.65625c3.875-3.871094 10.152343-3.878906 14.035156 0l37.195312 37.195313c3.871094 3.875 3.871094 10.160156 0 14.035156l-21.949218 21.945313c-3.542969 3.542968-3.914063 9.164062-.828126 13.109374 11.894532 15.191407 25.535157 30.628907 40.664063 45.753907 15.125 15.128906 30.5625 28.769531 45.753906 40.664062 3.941407 3.085938 9.5625 2.714844 13.105469-.828125l21.949219-21.949218c3.875-3.871094 10.160156-3.871094 14.035156 0l37.195313 37.195312c3.878906 3.882812 3.871093 10.160156 0 14.035156l-36.65625 36.65625c-6.003907 6.003906-15.191407 7.570313-22.804688 3.773438-31.679688-15.824219-68.578125-43.011719-103.847656-78.277344-35.265625-35.265625-62.453125-72.167969-78.277344-103.847656-3.796875-7.613282-2.230469-16.800782 3.773438-22.804688zm0 0" fill="#bfe89e"/><path d="m314.40625 317.902344-51.230469-51.230469 10.054688-10.054687c3.875-3.871094 10.160156-3.871094 14.035156 0l37.195313 37.195312c3.878906 3.882812 3.871093 10.160156 0 14.035156zm0 0" fill="#84b75b"/><path d="m313.003906 324.222656c-1.980468 0-3.957031-.753906-5.464844-2.261718l-48.421874-48.421876c-3.019532-3.019531-3.019532-7.910156 0-10.929687 3.015624-3.015625 7.910156-3.015625 10.925781 0l48.421875 48.421875c3.019531 3.019531 3.019531 7.910156 0 10.929688-1.507813 1.507812-3.484375 2.261718-5.460938 2.261718zm0 0" fill="#a0d37d"/><path d="m113.25 116.746094 10.054688-10.054688c3.875-3.871094 10.152343-3.878906 14.035156 0l37.195312 37.195313c3.871094 3.875 3.871094 10.160156 0 14.035156l-10.054687 10.054687zm0 0" fill="#84b75b"/><path d="m163.074219 174.300781c-1.976563 0-3.953125-.757812-5.460938-2.265625l-48.421875-48.421875c-3.019531-3.019531-3.019531-7.910156 0-10.929687 3.019532-3.015625 7.910156-3.011719 10.925782 0l48.421874 48.425781c3.019532 3.015625 3.019532 7.90625 0 10.925781-1.507812 1.507813-3.488281 2.265625-5.464843 2.265625zm0 0" fill="#a0d37d"/><path d="m234.503906 204.324219c-1.996094 0-3.992187-.769531-5.507812-2.304688-2.992188-3.039062-2.957032-7.933593.082031-10.925781l8.214844-8.089844c3.039062-2.996094 7.929687-2.960937 10.925781.078125 2.996094 3.039063 2.957031 7.933594-.082031 10.929688l-8.210938 8.089843c-1.507812 1.480469-3.464843 2.222657-5.421875 2.222657zm0 0" fill="#bfe89e"/><path d="m211.597656 188.183594c-.679687 0-1.371094-.089844-2.058594-.28125-4.113281-1.136719-6.527343-5.390625-5.390624-9.503906l3.066406-11.113282c1.132812-4.113281 5.390625-6.527344 9.503906-5.390625 4.113281 1.132813 6.527344 5.390625 5.390625 9.503907l-3.066406 11.113281c-.945313 3.425781-4.054688 5.671875-7.445313 5.671875zm0 0" fill="#bfe89e"/><path d="m250.289062 227.472656c-3.433593 0-6.566406-2.308594-7.46875-5.785156-1.074218-4.128906 1.402344-8.347656 5.535157-9.421875l11.15625-2.898437c4.125-1.070313 8.347656 1.402343 9.421875 5.535156 1.070312 4.128906-1.40625 8.347656-5.535156 9.421875l-11.160157 2.898437c-.648437.167969-1.304687.25-1.949219.25zm0 0" fill="#bfe89e"/><g fill="#d3d8df"><path d="m32.648438 67.078125h-16.878907c-8.707031 0-15.769531-7.058594-15.769531-15.769531 0-8.707032 7.058594-15.769532 15.769531-15.769532h16.878907c8.710937 0 15.773437 7.0625 15.773437 15.769532-.003906 8.710937-7.0625 15.769531-15.773437 15.769531zm0 0"/><path d="m32.648438 137.128906h-16.878907c-8.707031 0-15.769531-7.058594-15.769531-15.769531s7.058594-15.769531 15.769531-15.769531h16.878907c8.710937 0 15.773437 7.058594 15.773437 15.769531-.003906 8.710937-7.0625 15.769531-15.773437 15.769531zm0 0"/><path d="m32.648438 207.179688h-16.878907c-8.707031 0-15.769531-7.0625-15.769531-15.773438 0-8.707031 7.058594-15.769531 15.769531-15.769531h16.878907c8.710937 0 15.773437 7.0625 15.773437 15.769531-.003906 8.710938-7.0625 15.773438-15.773437 15.773438zm0 0"/><path d="m32.648438 277.226562h-16.878907c-8.707031 0-15.769531-7.058593-15.769531-15.769531 0-8.710937 7.058594-15.769531 15.769531-15.769531h16.878907c8.710937 0 15.773437 7.058594 15.773437 15.769531-.003906 8.707031-7.0625 15.769531-15.773437 15.769531zm0 0"/><path d="m32.648438 347.273438h-16.878907c-8.707031 0-15.769531-7.058594-15.769531-15.769532 0-8.707031 7.058594-15.769531 15.769531-15.769531h16.878907c8.710937 0 15.773437 7.0625 15.773437 15.769531-.003906 8.710938-7.0625 15.769532-15.773437 15.769532zm0 0"/><path d="m32.648438 417.324219h-16.878907c-8.707031 0-15.769531-7.058594-15.769531-15.769531 0-8.710938 7.058594-15.769532 15.769531-15.769532h16.878907c8.710937 0 15.773437 7.058594 15.773437 15.769532-.003906 8.710937-7.0625 15.769531-15.773437 15.769531zm0 0"/></g></svg>